# xmcd
#
# Track frame offsets: 
#        150
#        21242
#        45743
#        73107
#        100267
#        126876
#        150003
#        189700
#        211066
#        227013
#        255205
#
# Disc length: 3951 seconds
#
# Revision: 2
# Processed by: cddbd v1.5.2PL0 Copyright (c) Steve Scherf et al.
# Submitted via: ExactAudioCopy v0.95a4
#
DISCID=870f6d0b
DTITLE=Neil Young - Are You Passionate?
DYEAR=2002
DGENRE=Rock
TTITLE0=You're My Girl
TTITLE1=Mr. Disappointment
TTITLE2=Differently
TTITLE3=Quit (Don't Say You Love Me)
TTITLE4=Let's Roll
TTITLE5=Are You Passionate?
TTITLE6=Goin' Home
TTITLE7=When I Hold You in My Arms
TTITLE8=Be With You
TTITLE9=Two Old Friends
TTITLE10=She's a Healer
EXTD=Year: 2002\n\n\n\n                                               
EXTD=     www.neilyoung.com\n\n\n                           
EXTD=                         www.repriserec.com
EXTT0=
EXTT1=
EXTT2=
EXTT3=
EXTT4=
EXTT5=
EXTT6=
EXTT7=
EXTT8=
EXTT9=
EXTT10=
PLAYORDER=
